<svg xmlns="http://www.w3.org/2000/svg" width="1200" height="302" viewBox="0 0 1200 302" role="img" aria-labelledby="title desc">
    <title id="title">Clear boundaries, replaceable storage.</title><desc id="desc">Spring MVC + Thymeleaf  ·  JDBC is the active implementation  ·  H2 in-memory database</desc>
    <style>text{font-family:Arial,Helvetica,sans-serif}.eyebrow{font-size:13px;font-weight:700;letter-spacing:2px;fill:#2563eb}.title{font-size:31px;font-weight:700;fill:#172554}.number{font-size:12px;font-weight:700;fill:#2563eb}.node{font-size:22px;font-weight:700;fill:#172554}.detail{font-size:15px;fill:#475569}.footer{font-size:14px;fill:#475569}</style>
    <rect width="1200" height="302" rx="20" fill="#f3f7ff"/>
    <rect x="40" y="35" width="32" height="4" rx="2" fill="#2563eb"/>
    <text x="40" y="68" class="eyebrow">BACKEND / MVC / REPOSITORY</text>
    <text x="40" y="109" class="title">Clear boundaries, replaceable storage.</text>
    <rect x="40" y="136" width="336" height="100" rx="14" fill="#ffffff" stroke="#dbe5f4"/>
        <text x="60" y="165" class="number">01</text>
        <text x="60" y="194" class="node">Controller</text>
        <text x="60" y="216" class="detail">Forms / Views / HTTP routes</text><path d="M 383 185 h 23 m -7 -6 l 7 6 -7 6" fill="none" stroke="#2563eb" stroke-width="2"/><rect x="412" y="136" width="336" height="100" rx="14" fill="#ffffff" stroke="#dbe5f4"/>
        <text x="432" y="165" class="number">02</text>
        <text x="432" y="194" class="node">Service</text>
        <text x="432" y="216" class="detail">Student / Teacher / Lesson</text><path d="M 755 185 h 23 m -7 -6 l 7 6 -7 6" fill="none" stroke="#2563eb" stroke-width="2"/><rect x="784" y="136" width="336" height="100" rx="14" fill="#ffffff" stroke="#dbe5f4"/>
        <text x="804" y="165" class="number">03</text>
        <text x="804" y="194" class="node">Repository</text>
        <text x="804" y="216" class="detail">Interface / Memory / JDBC</text><text x="40" y="270" class="footer">Spring MVC + Thymeleaf  ·  JDBC is the active implementation  ·  H2 in-memory database</text></svg>
