<svg xmlns="http://www.w3.org/2000/svg" width="600" height="560" viewBox="0 0 600 560" role="img" aria-labelledby="title"><title id="title">컨트롤러·서비스·저장소 인터페이스로 책임을 분리한 구조</title><style>text{font-family:Arial,Helvetica,sans-serif}</style><rect width="600" height="560" rx="18" fill="#f3f7ff"/><text x="30" y="44" font-size="21" font-weight="700" fill="#2563eb">SPRING MVC ARCHITECTURE</text><text x="30" y="90" font-size="34" font-weight="700" fill="#172554">Separate responsibilities.</text><rect x="30" y="120" width="540" height="114" rx="12" fill="white" stroke="#cbdaf2"/><text x="52" y="185" font-size="30" font-weight="700" fill="#2563eb">01</text><text x="130" y="167" font-size="34" font-weight="700" fill="#172554">Controller</text><text x="130" y="205" font-size="26" fill="#475569">Forms / Views</text><path d="M 300 239 v 18 m -6 -6 l 6 6 6 -6" fill="none" stroke="#2563eb" stroke-width="2"/><rect x="30" y="264" width="540" height="114" rx="12" fill="white" stroke="#cbdaf2"/><text x="52" y="329" font-size="30" font-weight="700" fill="#2563eb">02</text><text x="130" y="311" font-size="34" font-weight="700" fill="#172554">Service</text><text x="130" y="349" font-size="26" fill="#475569">Business logic</text><path d="M 300 383 v 18 m -6 -6 l 6 6 6 -6" fill="none" stroke="#2563eb" stroke-width="2"/><rect x="30" y="408" width="540" height="114" rx="12" fill="white" stroke="#cbdaf2"/><text x="52" y="473" font-size="30" font-weight="700" fill="#2563eb">03</text><text x="130" y="455" font-size="34" font-weight="700" fill="#172554">Repository</text><text x="130" y="493" font-size="26" fill="#475569">Memory / JDBC</text></svg>
